<svg id="Layer_1" data-name="Layer 1" xmlns="http://www.w3.org/2000/svg" viewBox="0 0 44 44"><defs><style>.cls-1{fill:#fff;}</style></defs><title>account</title><path class="cls-1" d="M44,22A22,22,0,1,0,7.14,38.21h0l.71.61.15.11q.57.47,1.17.9l.39.28c.43.29.87.57,1.31.83l.3.17c.49.28,1,.55,1.5.79l.12.05a21.29,21.29,0,0,0,5.32,1.68l.14,0c.58.1,1.17.18,1.76.23l.22,0C20.8,44,21.4,44,22,44s1.19,0,1.78-.08l.22,0c.59,0,1.17-.13,1.74-.22l.15,0A21.69,21.69,0,0,0,31.14,42l.18-.08c.5-.23,1-.48,1.45-.75l.35-.2c.43-.25.86-.52,1.27-.8l.44-.31,1-.79.22-.17.74-.61,0,0A21.94,21.94,0,0,0,44,22ZM1.6,22A20.4,20.4,0,1,1,35.53,37.25a6,6,0,0,0-.72-.43L28,33.43a1.75,1.75,0,0,1-1-1.59V29.47c.15-.19.32-.41.49-.65a16.18,16.18,0,0,0,2.09-4.1,2.89,2.89,0,0,0,1.67-2.63V19.26a2.89,2.89,0,0,0-.71-1.9V13.63a6.44,6.44,0,0,0-1.51-4.69C27.62,7.25,25.23,6.4,22,6.4s-5.62.85-7.09,2.53a6.47,6.47,0,0,0-1.51,4.7v3.73a2.93,2.93,0,0,0-.71,1.89v2.84a3,3,0,0,0,1.07,2.26,14.88,14.88,0,0,0,2.48,5.11v2.31a1.78,1.78,0,0,1-.93,1.57L9,36.79a6.64,6.64,0,0,0-.6.38A20.35,20.35,0,0,1,1.6,22ZM34,38.51c-.28.2-.57.4-.86.58-.13.09-.26.18-.4.26-.37.23-.76.46-1.15.66l-.26.14a20.11,20.11,0,0,1-2.79,1.18l-.1,0a15.78,15.78,0,0,1-1.53.44h0c-.52.12-1,.23-1.57.32h0c-.49.08-1,.13-1.5.18l-.26,0q-.75.06-1.5.06c-.51,0-1,0-1.52-.06l-.26,0c-.5,0-1-.11-1.51-.19h-.07a21.12,21.12,0,0,1-3.11-.78l-.09,0c-.51-.17-1-.36-1.49-.57h0c-.46-.2-.92-.42-1.37-.66L12.4,40c-.41-.22-.81-.45-1.2-.7l-.35-.22c-.37-.24-.72-.49-1.07-.75l-.11-.08.08,0,6.32-3.46a3.38,3.38,0,0,0,1.77-3V28.89l-.19-.22a13.22,13.22,0,0,1-2.4-5l-.07-.32-.27-.18a1.31,1.31,0,0,1-.62-1.11V19.25a1.29,1.29,0,0,1,.45-1L15,18V13.48A4.82,4.82,0,0,1,16.11,10C17.27,8.67,19.25,8,22,8s4.72.66,5.88,2A4.93,4.93,0,0,1,29,13.48V18l.26.24a1.29,1.29,0,0,1,.45,1v2.83a1.34,1.34,0,0,1-.95,1.26l-.39.12-.13.4a14.6,14.6,0,0,1-2,4,9.43,9.43,0,0,1-.59.75l-.19.23v3a3.36,3.36,0,0,0,1.87,3l6.77,3.38.13.07A2.48,2.48,0,0,0,34,38.51Z"/></svg>