<?xml version="1.0" encoding="utf-8"?>
<!-- Generator: Adobe Illustrator 22.1.0, SVG Export Plug-In . SVG Version: 6.00 Build 0)  -->
<svg version="1.1" id="Layer_1" xmlns="http://www.w3.org/2000/svg" xmlns:xlink="http://www.w3.org/1999/xlink" x="0px" y="0px"
	 viewBox="0 0 44 44" style="enable-background:new 0 0 44 44;" xml:space="preserve">
<style type="text/css">
	.st0{fill:#FAB57B;}
	.st1{fill:#3D3D3D;}
</style>
<title>Brand Cards</title>
<g id="Layer_1_1_">
	<path class="st0" d="M19.5,14.2L19.5,14.2c-2.8,0-6.6-0.3-8.5-1.8c-3-2.3-3.7-6.1-1.7-8.7c1.1-1.4,2.7-2.2,4.4-2.1
		c1.6,0,3.2,0.6,4.4,1.6c3,2.4,4.3,9.9,4.4,10.2c0.1,0.3-0.2,0.7-0.5,0.7h-0.1C21.9,14.1,20.9,14.2,19.5,14.2z"/>
	<path class="st0" d="M24,14.2c-1.1,0-1.9-0.1-1.9-0.1c-0.2,0-0.3-0.1-0.4-0.2c-0.1-0.1-0.2-0.3-0.1-0.5c0-0.2,1-6,3.4-7.8
		S30.3,4,31.9,6c0.8,1,1.1,2.3,0.8,3.5c-0.3,1.3-1.1,2.5-2.2,3.3C29,14,26.1,14.2,24,14.2z"/>
	<g id="giftcard">
		<path class="st1" d="M19.3,14.1L19.3,14.1c-2.9,0-6.8-0.3-8.8-1.9c-3.1-2.4-3.9-6.3-1.8-9C9.9,1.8,11.6,1,13.4,1
			C15,1,16.7,1.6,18,2.7c3.1,2.4,4.5,10.2,4.6,10.6c0.1,0.3-0.2,0.7-0.5,0.7c0,0,0,0,0,0h0C22,14,20.8,14.1,19.3,14.1z M13.3,2.3
			C12,2.3,10.6,2.9,9.8,4c-1.7,2.2-1,5.2,1.5,7.2c1.3,1,4.2,1.6,8,1.6h1.7c-0.4-1.9-1.7-7.3-3.9-9C16.1,2.9,14.7,2.4,13.3,2.3
			L13.3,2.3z"/>
		<path class="st1" d="M24,14.1c-1.2,0-2-0.1-2-0.1c-0.2,0-0.3-0.1-0.5-0.2c-0.1-0.1-0.2-0.3-0.1-0.5C21.5,13,22.6,7,25,5.2
			s5.6-1.6,7.2,0.4c0.8,1,1.1,2.3,0.9,3.6c-0.3,1.4-1.1,2.6-2.2,3.5C29.3,13.9,26.3,14.1,24,14.1z M22.9,12.8H24c2.9,0,5-0.4,6-1.2
			c0.9-0.6,1.5-1.6,1.8-2.6c0.2-0.9-0.1-1.8-0.6-2.6c-1.2-1.5-3.5-1.6-5.4-0.2C24.3,7.3,23.3,10.9,22.9,12.8z"/>
		<rect x="1.7" y="23.4" class="st1" width="40.7" height="2"/>
		<path class="st1" d="M39.7,43H4.3C2.5,43,1,41.5,1,39.7v-21c0-1.8,1.5-3.3,3.3-3.3h35.4c1.8,0,3.3,1.5,3.3,3.3v21
			C43,41.5,41.5,43,39.7,43z M4.3,16.8c-1.1,0-2,0.9-2,2v21c0,1.1,0.9,2,2,2h35.4c1.1,0,2-0.9,2-2v-21c0-1.1-0.9-2-2-2H4.3z"/>
		<path class="st0" d="M16.5,36.5H8c-0.6,0-1-0.4-1-1s0.4-1,1-1h8.5c0.6,0,1,0.4,1,1S17.1,36.5,16.5,36.5L16.5,36.5z"/>
		<path class="st1" d="M15.4,35.5H6.9c-0.6,0-1-0.4-1-1s0.4-1,1-1h8.5c0.6,0,1,0.4,1,1S16,35.5,15.4,35.5z"/>
	</g>
</g>
</svg>
