<?xml version="1.0" encoding="UTF-8"?>
<svg id="Layer_1" data-name="Layer 1" xmlns="http://www.w3.org/2000/svg" viewBox="0 0 24 24">
  <path d="M21,12c0,.66-.89,1.2-1.03,1.82-.14.63.42,1.51.14,2.09-.28.58-1.32.69-1.72,1.19-.4.5-.28,1.54-.78,1.94-.5.4-1.48.05-2.07.33-.57.28-.91,1.27-1.54,1.41-.61.14-1.35-.6-2-.6s-1.39.74-2,.6c-.63-.14-.97-1.13-1.54-1.41-.58-.28-1.57.07-2.07-.33-.5-.4-.38-1.44-.78-1.94-.4-.5-1.44-.61-1.72-1.19-.28-.57.29-1.45.14-2.09-.14-.61-1.03-1.16-1.03-1.82s.89-1.2,1.03-1.82c.14-.63-.42-1.51-.14-2.09.28-.58,1.32-.69,1.72-1.19.4-.5.28-1.54.78-1.94.5-.4,1.48-.05,2.07-.33.57-.28.91-1.27,1.54-1.41.61-.14,1.35.6,2,.6s1.39-.74,2-.6c.63.14.97,1.13,1.54,1.41.58.28,1.57-.07,2.07.33.5.4.38,1.44.78,1.94.4.5,1.44.61,1.72,1.19.28.57-.29,1.45-.14,2.09.14.61,1.03,1.16,1.03,1.82Z" fill="none" stroke="#000" stroke-linecap="round" stroke-linejoin="round" stroke-width=".5"/>
  <g>
    <g>
      <circle cx="16.89" cy="13.94" r="1.11" fill="none" stroke="#ea7e24" stroke-miterlimit="10" stroke-width=".5"/>
      <line x1="16.98" y1="8.95" x2="12.92" y2="15.05" fill="none" stroke="#ea7e24" stroke-miterlimit="10" stroke-width=".5"/>
      <circle cx="13" cy="10.06" r="1.11" fill="none" stroke="#ea7e24" stroke-miterlimit="10" stroke-width=".5"/>
    </g>
    <rect x="6" y="8.95" width="4.07" height="6.1" rx="2.03" ry="2.03" fill="none" stroke="#ea7e24" stroke-miterlimit="10" stroke-width=".5"/>
  </g>
</svg>