<?xml version="1.0" encoding="utf-8"?>
<!-- Generator: Adobe Illustrator 22.1.0, SVG Export Plug-In . SVG Version: 6.00 Build 0)  -->
<svg version="1.1" id="Layer_1" xmlns="http://www.w3.org/2000/svg" xmlns:xlink="http://www.w3.org/1999/xlink" x="0px" y="0px"
	 viewBox="0 0 44 44" style="enable-background:new 0 0 44 44;" xml:space="preserve">
<style type="text/css">
	.st0{fill:#FBB67B;}
	.st1{fill:#3D3D3D;}
</style>
<title>Categories</title>
<g id="Layer_2_1_">
	<polygon class="st0" points="28.6,2.1 28.6,12.1 39.4,12.2 28.9,1.3 	"/>
	<path class="st1" d="M29,0.4H3.5v43.3h37V11.8L29,0.4z M29.5,3l8.3,8.3h-8.3V3z M5.1,42V1.9h22.8v11h11v29.2L5.1,42z"/>
	<path class="st0" d="M32.2,17.5H19.6c-0.4,0-0.8,0.4-0.8,0.8v0c0,0.4,0.4,0.8,0.8,0.8h12.6c0.4,0,0.8-0.4,0.8-0.8
		C33,17.9,32.7,17.5,32.2,17.5C32.2,17.5,32.2,17.5,32.2,17.5z"/>
	<path class="st0" d="M16.8,15.4l-3.4,2.7L12.3,17c-0.3-0.3-0.8-0.4-1.1-0.1c-0.3,0.3-0.4,0.8-0.1,1.1c0,0,0,0,0.1,0.1l1.6,1.6
		c0.2,0.1,0.4,0.2,0.6,0.2c0.2,0,0.4-0.1,0.5-0.2l3.9-3.1c0.3-0.3,0.4-0.8,0.1-1.1c0,0,0,0,0,0l0,0C17.6,15.2,17.1,15.1,16.8,15.4
		C16.8,15.4,16.8,15.4,16.8,15.4L16.8,15.4z"/>
	<path class="st0" d="M32.2,26.3H19.6c-0.4,0-0.8,0.3-0.9,0.7c0,0.4,0.3,0.8,0.7,0.9h12.8c0.4,0,0.8-0.3,0.9-0.7
		c0.1-0.4-0.3-0.8-0.7-0.9c0,0,0,0,0,0L32.2,26.3z"/>
	<path class="st0" d="M16.8,24.1l-3.4,2.7l-1.1-1.1c-0.3-0.3-0.8-0.3-1.1,0l0,0c-0.3,0.3-0.3,0.8,0,1.1c0,0,0,0,0,0l0,0l1.6,1.6
		c0.2,0.1,0.4,0.2,0.6,0.2c0.2,0,0.3-0.1,0.5-0.2l3.9-3.1c0.3-0.3,0.4-0.8,0.1-1.1C17.6,23.8,17.1,23.8,16.8,24.1
		C16.8,24.1,16.8,24.1,16.8,24.1L16.8,24.1z"/>
	<path class="st0" d="M32.2,35H19.6c-0.4,0-0.8,0.4-0.7,0.9c0,0.4,0.3,0.7,0.7,0.7h12.6c0.4,0,0.8-0.4,0.7-0.9
		C32.9,35.3,32.6,35,32.2,35z"/>
	<path class="st0" d="M16.8,32.8l-3.4,2.7l-1.1-1.1c-0.3-0.3-0.8-0.3-1.1,0c-0.3,0.3-0.3,0.8,0,1.1l0,0l0,0l1.6,1.6
		c0.2,0.1,0.4,0.2,0.6,0.2c0.2,0,0.3-0.1,0.5-0.2l3.9-3.2c0.4-0.3,0.4-0.8,0.2-1.1C17.7,32.5,17.2,32.5,16.8,32.8
		C16.8,32.7,16.8,32.7,16.8,32.8L16.8,32.8L16.8,32.8z"/>
	<path class="st1" d="M31.8,16.9H19.2c-0.4,0-0.7,0.4-0.7,0.9c0,0.4,0.3,0.6,0.7,0.7h12.6c0.4,0,0.8-0.4,0.8-0.8
		c0-0.4-0.3-0.7-0.6-0.8C31.9,16.9,31.9,16.9,31.8,16.9z"/>
	<path class="st1" d="M16.4,14.7L13,17.4l-1.1-1.1c-0.3-0.3-0.8-0.3-1.1,0c-0.3,0.3-0.3,0.8,0,1.1l0,0l1.6,1.6
		c0.2,0.1,0.4,0.2,0.6,0.2c0.2,0,0.3-0.1,0.5-0.2l3.9-3.2c0.3-0.3,0.4-0.8,0.1-1.1C17.2,14.4,16.7,14.4,16.4,14.7
		C16.4,14.7,16.4,14.7,16.4,14.7L16.4,14.7z"/>
	<path class="st1" d="M31.8,25.5H19.2c-0.4,0-0.7,0.4-0.7,0.9c0,0.4,0.3,0.7,0.7,0.7h12.6c0.4,0,0.8-0.3,0.9-0.7
		c0-0.4-0.3-0.8-0.7-0.9H31.8z"/>
	<path class="st1" d="M16.4,23.4L13,26.1L11.9,25c-0.3-0.3-0.8-0.3-1.1,0c-0.3,0.3-0.3,0.8,0,1.1l0,0l0,0l1.6,1.6
		c0.2,0.1,0.4,0.2,0.6,0.2c0.2,0,0.3-0.1,0.5-0.2l3.9-3.1c0.3-0.3,0.4-0.8,0.1-1.1c0,0,0,0,0,0C17.2,23.1,16.7,23.1,16.4,23.4
		C16.4,23.4,16.4,23.4,16.4,23.4L16.4,23.4z"/>
	<path class="st1" d="M31.8,34.2H19.2c-0.4,0-0.7,0.4-0.7,0.9c0.1,0.4,0.3,0.6,0.7,0.7h12.6c0.4,0,0.8-0.3,0.9-0.7
		c0.1-0.4-0.3-0.8-0.7-0.9c0,0,0,0,0,0H31.8z"/>
	<path class="st1" d="M16.4,32L13,34.7l-1.1-1.1c-0.3-0.3-0.8-0.3-1.1,0c-0.3,0.3-0.3,0.8,0,1.1c0,0,0,0,0,0l0,0l1.6,1.6
		c0.1,0.2,0.3,0.2,0.6,0.2c0.2,0,0.4-0.1,0.5-0.2l3.9-3.2c0.3-0.3,0.4-0.8,0.1-1.1c0,0,0,0,0,0C17.2,31.8,16.7,31.7,16.4,32L16.4,32
		L16.4,32z"/>
</g>
</svg>
