<svg xmlns="http://www.w3.org/2000/svg" viewBox="0 0 130.11 120.09"><defs><style>.a{fill:#58595b;}.b{fill:#ffb77b;}</style></defs><path class="a" d="M97.18,38.2H93.5a7.66,7.66,0,0,0,1-3.83V22.67A7.72,7.72,0,0,0,86.81,15H17.66a7.73,7.73,0,0,0-7.72,7.71v11.7a7.74,7.74,0,0,0,7.72,7.72h3.68a7.61,7.61,0,0,0-1,3.82v11.7a7.67,7.67,0,0,0,1,3.83H17.66a7.73,7.73,0,0,0-7.72,7.71v11.7a7.73,7.73,0,0,0,5.18,7.28,7.7,7.7,0,0,0-1.29,4.26v11.7a7.72,7.72,0,0,0,1.29,4.26,7.73,7.73,0,0,0-5.18,7.28v11.7A7.73,7.73,0,0,0,17.66,135H77a1.95,1.95,0,1,0,0-3.89H17.66a3.83,3.83,0,0,1-3.83-3.82v-11.7a3.84,3.84,0,0,1,3.83-3.83h37.6a1.95,1.95,0,1,0,0-3.89H21.55a3.83,3.83,0,0,1-3.83-3.82V92.39a3.84,3.84,0,0,1,3.83-3.83H51.72a1.95,1.95,0,0,0,0-3.89H17.66a3.83,3.83,0,0,1-3.83-3.82V69.15a3.84,3.84,0,0,1,3.83-3.83H62.74a1.94,1.94,0,1,0,0-3.88H28a3.84,3.84,0,0,1-3.83-3.83V45.91A3.84,3.84,0,0,1,28,42.08H97.18A3.84,3.84,0,0,1,101,45.91v1.45a1.95,1.95,0,1,0,3.89,0V45.91A7.73,7.73,0,0,0,97.18,38.2Zm-6.54-3.83a3.84,3.84,0,0,1-3.83,3.83H17.66a3.84,3.84,0,0,1-3.83-3.83V22.67a3.83,3.83,0,0,1,3.83-3.82H86.81a3.83,3.83,0,0,1,3.83,3.82v11.7Z" transform="translate(-9.94 -14.96)"/><path class="a" d="M120.83,57.3a1.95,1.95,0,0,0-2.13,3.26,38,38,0,1,1-5-2.76,1.94,1.94,0,1,0,1.62-3.53,41.87,41.87,0,0,0-17.55-3.81,42.29,42.29,0,1,0,23.06,6.84Z" transform="translate(-9.94 -14.96)"/><path class="a" d="M119.31,71.2a30.48,30.48,0,0,0-43.09,0,30.58,30.58,0,0,0-7.87,29.53,1.94,1.94,0,1,0,3.75-1A26.69,26.69,0,0,1,79,74a26.55,26.55,0,1,1-4.66,31.33,1.94,1.94,0,1,0-3.43,1.83A30.48,30.48,0,1,0,119.31,71.2Z" transform="translate(-9.94 -14.96)"/><path class="b" d="M87.16,112a3.16,3.16,0,0,1-1.9-.59c-1.22-.89-1.65-2.62-1.17-4.73L86,98.13,79.69,92.6c-1.68-1.47-2.37-3.17-1.88-4.67s2.06-2.51,4.31-2.72l8.39-.79,3.39-7.77c.89-2,2.29-3.2,3.86-3.2h0c1.57,0,3,1.17,3.87,3.2h0l3.4,7.77,8.36.77c2.26.21,3.84,1.2,4.33,2.72s-.2,3.22-1.89,4.7l-6.31,5.51,1.94,8.54c.48,2.13.05,3.87-1.17,4.77-.71.51-2.26,1.16-4.75-.3l-7.76-4.55L90,111.14A5.57,5.57,0,0,1,87.16,112Zm10.6-36h0c-.35,0-.94.43-1.47,1.63L92.6,86.17a1.29,1.29,0,0,1-1.08.78l-9.16.86c-1.26.12-2,.55-2.07.92s.12,1,1.12,1.91l6.92,6a1.3,1.3,0,0,1,.41,1.27l-2.1,9.35c-.26,1.14-.1,1.86.16,2s.94.11,1.89-.45L97.12,104a1.3,1.3,0,0,1,1.32,0l8.42,4.93c1,.56,1.64.62,1.89.44s.42-.93.16-2.09l-2.1-9.29a1.29,1.29,0,0,1,.41-1.27l6.89-6c1-.88,1.23-1.59,1.12-1.94s-.72-.79-2.08-.92L104,86.94a1.3,1.3,0,0,1-1.08-.77l-3.7-8.47h0C98.72,76.49,98.12,76.06,97.76,76.06Z" transform="translate(-9.94 -14.96)"/></svg>