<svg xmlns="http://www.w3.org/2000/svg" viewBox="0 0 72 72"><defs><style>.cls-1{fill:#a5a5a5;}.cls-2{fill:#515151;}.cls-3{fill:#39393d;}.cls-4{fill:#fff;}</style></defs><title>insta</title><g id="Layer_1" data-name="Layer 1"><circle class="cls-1" cx="36" cy="36" r="36"/></g><g id="Layer_4" data-name="Layer 4"><path class="cls-2" d="M44.49,21.71a5.46,5.46,0,0,1,5.45,5.46V44.49A5.46,5.46,0,0,1,44.49,50H27.16a5.46,5.46,0,0,1-5.45-5.46V27.17a5.46,5.46,0,0,1,5.45-5.46S44.64,21.56,44.49,21.71Z"/><path class="cls-3" d="M44.49,21.71H27.16a5.45,5.45,0,0,0-5.45,5.46V44.49A5.46,5.46,0,0,0,27.16,50H44.49A5.47,5.47,0,0,0,50,44.49V27.17A5.46,5.46,0,0,0,44.49,21.71Z"/><path class="cls-4" d="M35.83,40.8a5,5,0,1,0-4-7.87,4.9,4.9,0,0,0-.94,2.9A5,5,0,0,0,35.83,40.8Z"/><polygon class="cls-4" points="46.68 29.75 46.68 25.58 46.68 24.96 46.05 24.96 41.89 24.98 41.91 29.76 46.68 29.75"/><path class="cls-4" d="M43.55,35.83a7.73,7.73,0,1,1-14.88-2.9H24.46V44.49a2.7,2.7,0,0,0,2.7,2.7H44.49a2.7,2.7,0,0,0,2.7-2.7V32.93H43A7.73,7.73,0,0,1,43.55,35.83Z"/></g></svg>