<?xml version="1.0" encoding="utf-8"?>
<!-- Generator: Adobe Illustrator 22.1.0, SVG Export Plug-In . SVG Version: 6.00 Build 0)  -->
<svg version="1.1" id="Layer_1" xmlns="http://www.w3.org/2000/svg" xmlns:xlink="http://www.w3.org/1999/xlink" x="0px" y="0px"
	 viewBox="0 0 44 44" style="enable-background:new 0 0 44 44;" xml:space="preserve">
<style type="text/css">
	.st0{fill:#FFFFFF;}
	.st1{fill:#FFB77B;}
	.st2{fill:#58595B;}
	.st3{fill:#F1F1EF;}
</style>
<title>Offers</title>
<g id="Layer_5">
	<path class="st0" d="M19.6,12.8c-0.5,0-1,0.2-1.4,0.6L2.5,29c-0.2,0.2-0.2,0.4,0,0.6l0,0l11,11c0.1,0.1,0.2,0.1,0.3,0.1
		c0.1,0,0.2,0,0.3-0.1l15.7-15.7c0.4-0.4,0.6-0.9,0.6-1.5l-0.3-10c0-0.2-0.2-0.5-0.5-0.5L19.6,12.8z"/>
	<polygon class="st1" points="3.3,27.6 14,38.6 28.6,23.2 31.2,18.9 30.9,24.7 13.8,41.8 1.4,29.4 	"/>
	<path class="st2" d="M13.8,42.3c-0.5,0-1-0.2-1.4-0.6l-11-11c-0.7-0.8-0.7-2,0-2.8l15.7-15.7c0.7-0.6,1.6-1,2.6-1l10,0.3
		c1.1,0,2,0.9,2,2l0.3,10c0,1-0.4,1.9-1,2.6L15.2,41.7C14.8,42.1,14.3,42.3,13.8,42.3z M19.6,12.8c-0.5,0-1,0.2-1.4,0.6L2.5,29
		c-0.2,0.2-0.2,0.4,0,0.6l0,0l11,11c0.1,0.1,0.2,0.1,0.3,0.1c0.1,0,0.2,0,0.3-0.1l15.7-15.7c0.4-0.4,0.6-0.9,0.6-1.5l-0.3-10
		c0-0.2-0.2-0.5-0.5-0.5L19.6,12.8z"/>
	<path class="st3" d="M26.9,18.9c0,1.6-1.3,2.8-2.9,2.8c-1.6,0-2.8-1.3-2.8-2.9c0-1.6,1.3-2.8,2.8-2.8l0,0
		C25.6,16,26.8,17.3,26.9,18.9L26.9,18.9z"/>
	<path class="st1" d="M24,22.5c-2,0-3.6-1.6-3.6-3.6c0-2,1.6-3.6,3.6-3.6c2,0,3.6,1.6,3.6,3.6l0,0C27.6,20.9,26,22.5,24,22.5z"/>
	<path class="st0" d="M27.4,20.9c-1.1,0-2.2-0.1-3.2-0.2c-1-0.1-1.8-1-1.7-2c0.1-1,1-1.8,2-1.7h0.2c2.2,0.3,4.4,0.2,6.5-0.2
		c4-0.8,6.3-2.9,6.8-6.3c0.6-2.6-0.9-5.2-3.4-5.9C32.4,4,29.2,5,27.4,9.8c-0.1,1-1.1,1.7-2.1,1.6c-1-0.1-1.7-1.1-1.6-2.1
		c0-0.2,0.1-0.4,0.2-0.6c0,0,0-0.1,0-0.1c2.4-6.6,7.5-8.5,11.6-7.4c2,0.5,3.7,1.8,4.9,3.5c1.2,1.9,1.7,4.3,1.2,6.5
		c-0.4,2.6-1.7,5-3.8,6.7c-1.8,1.4-3.8,2.3-6,2.6C30.4,20.7,28.9,20.9,27.4,20.9z"/>
	<path class="st2" d="M27.4,19.8c-1,0-2.1-0.1-3.1-0.2c-0.4-0.1-0.6-0.5-0.5-1c0.1-0.3,0.4-0.6,0.8-0.6l0,0c2.3,0.3,4.6,0.2,6.9-0.2
		c4.5-0.9,7.1-3.3,7.8-7.2c0.7-3.1-1.2-6.2-4.2-7c-2.7-0.7-6.5,0.4-8.5,5.8c-0.1,0.4-0.6,0.6-1,0.5c0,0,0,0,0,0l0,0
		c-0.4-0.2-0.6-0.6-0.5-1l0,0c2.2-6,6.8-7.7,10.3-6.8c1.7,0.4,3.2,1.5,4.2,3C40.6,6.9,41,9,40.6,11c-0.8,4.5-3.9,7.4-9,8.4
		C30.2,19.7,28.8,19.8,27.4,19.8z"/>
</g>
</svg>
