<?xml version="1.0" encoding="utf-8"?>
<!-- Generator: Adobe Illustrator 22.1.0, SVG Export Plug-In . SVG Version: 6.00 Build 0)  -->
<svg version="1.1" id="Layer_1" xmlns="http://www.w3.org/2000/svg" xmlns:xlink="http://www.w3.org/1999/xlink" x="0px" y="0px"
	 viewBox="0 0 44 44" style="enable-background:new 0 0 44 44;" xml:space="preserve">
<style type="text/css">
	.st0{fill:#3D3D3D;}
	.st1{fill:none;stroke:#3D3D3D;stroke-miterlimit:10;}
	.st2{fill:#FFB77B;}
</style>
<title>Redeem Woohoo</title>
<g id="Layer_6">
	<path class="st0" d="M1.2,35.1l-0.1,0.8l1,0.1c0.6,0,1.1,0.1,1.7,0.1c2.1,0.2,4.2,0.7,6.1,1.5c0.4,0.2,1.1,0.4,1.8,0.7
		c1.5,0.6,3.6,1.5,5.4,2.1c0.9,0.3,1.7,0.5,2.6,0.7c0.4,0.1,0.8,0.1,1.1,0.1c0.3,0,0.7,0,1-0.1c1.2-0.4,5.5-3.5,9-6.1
		c3.8-2.8,7.7-5.8,8.5-6.5c0.1-0.1,0.3-0.3,0.5-0.4c0.7-0.6,1.4-1.2,2-1.8c0.6-0.6,1.1-1.4,1.2-2.3c0.1-0.9-0.7-1.8-1.6-1.8
		c-0.3,0-0.5,0-0.8,0.1c-0.4,0.1-0.7,0.2-1.1,0.4c-0.1-0.3-0.2-0.5-0.4-0.7c-0.4-0.4-1-0.5-1.6-0.3c-0.4,0.1-0.8,0.3-1.1,0.5
		c-0.1-0.3-0.3-0.5-0.5-0.6c-0.5-0.3-1.1-0.3-1.6-0.1C33,22,27.2,26.3,26.2,27l0,0c-0.7,0-1.5,0-2.2,0.2c-0.3,0.1-0.7,0.1-0.9,0.1
		c-2.9,0.4-5.8-0.3-8.3-1.9c-1.4-0.9-3-1.5-4.6-1.6C8.9,24,7.6,24.4,6.4,25c-1.9,0.8-4,1.7-5.2,1.4L1,27.3c1.5,0.4,3.6-0.6,5.7-1.5
		c1.1-0.6,2.2-0.9,3.4-1.1c1.5,0.1,3,0.7,4.2,1.5c2.1,1.4,4.6,2.1,7.1,2.1c0.6,0,1.1,0,1.7-0.1c0.3,0,0.7-0.1,1-0.1
		c1.3-0.2,2.8-0.4,3.7,0.5c0.8,0.6,0.9,1.8,0.3,2.6l0,0c-0.9,1-2.1,1.6-3.4,1.6l-0.3,0c-1.2,0.2-2.4,0.3-3.7,0.2h-1.4
		c-0.6,0-1.2,0.1-1.8,0.1c-2.5,0.2-4.9,0.3-7.3-1.1l-0.9-0.6L9,32.2l0.9,0.6c1.6,1,3.5,1.4,5.3,1.4c0.8,0,1.6,0,2.4-0.1
		c0.6,0,1.2-0.1,1.8-0.1h1.4c1.3,0,2.6-0.1,3.8-0.3h0.2c1.5-0.1,2.9-0.8,3.9-1.9c0.4-0.5,0.6-1,0.6-1.6c1.2-0.5,2.3-1.1,3.3-1.9
		l0.9-0.6c0.3-0.2,0.6-0.4,1-0.7c1.4-1,2.8-2,4.2-2.8c2.2-1.2,2.8-0.9,3-0.8c0.2,0.2,0.3,0.5,0.3,0.8c-0.1,1.2-1.9,2.7-2.9,3.5
		l-0.5,0.4c-0.8,0.7-4.6,3.7-8.4,6.5c-4.7,3.5-7.9,5.7-8.8,6c-0.5,0.2-1.6,0.2-4.2-0.7c-1.8-0.6-3.8-1.4-5.3-2.1
		c-0.7-0.3-1.4-0.6-1.8-0.8c-2-0.8-4.2-1.4-6.4-1.7c-0.3,0-1-0.1-1.7-0.1L1.2,35.1z M35.7,22.6c-0.4,0.2-0.9,0.5-1.5,0.9
		c-1.5,0.9-3.2,2-4.5,2.9l-1.8,1.2c-0.2-0.1-0.4-0.2-0.6-0.3c2.3-1.8,4.8-3.5,7.3-5.1c0.2-0.1,0.5-0.1,0.8,0
		C35.6,22.3,35.7,22.4,35.7,22.6z M38.8,23.1l-0.3,0.2c-1.5,0.9-2.9,1.8-4.3,2.8c-0.4,0.3-0.8,0.5-1,0.7l-1,0.7
		c-0.9,0.7-1.9,1.3-3,1.8c-0.1-0.4-0.4-0.8-0.7-1.1l1.6-1c1.3-0.9,3-2,4.5-2.9c0.9-0.7,1.9-1.2,3-1.7c0.3-0.1,0.6-0.1,0.9,0.1
		C38.6,22.7,38.7,22.9,38.8,23.1z"/>
	<g id="Element">
		<path class="st1" d="M21.9,24.3c2.9,0,5.2-2.4,5.2-5.3s-2.4-5.2-5.3-5.2c-2.9,0-5.2,2.3-5.2,5.2C16.6,21.9,19,24.2,21.9,24.3
			L21.9,24.3L21.9,24.3z"/>
		<path class="st2" d="M22.3,23.4c2.5,0,4.6-2.1,4.6-4.6c0-2.5-2.1-4.6-4.6-4.6s-4.6,2.1-4.6,4.6S19.7,23.4,22.3,23.4L22.3,23.4z"/>
		<path class="st0" d="M22.2,18.9c-0.7-0.2-1.2-0.6-1.2-1.3c0-0.6,0.5-1.2,1.2-1.2v-0.6h0.7v0.6c0.3,0,0.7,0.1,1,0.2l-0.2,0.8
			c-0.3-0.2-0.7-0.2-1-0.2c-0.5,0-0.6,0.2-0.6,0.4s0.2,0.4,0.8,0.6c0.8,0.3,1.1,0.7,1.1,1.3c0,0.7-0.5,1.2-1.2,1.3v0.7h-0.7v-0.6
			c-0.4,0-0.8-0.1-1.2-0.3l0.2-0.8c0.4,0.2,0.7,0.3,1.1,0.3c0.4,0,0.7-0.1,0.7-0.4S22.7,19.1,22.2,18.9z"/>
	</g>
	<g id="Element-2">
		<path class="st1" d="M31.5,15.2c2.3,0,4.2-1.9,4.2-4.2c0-2.3-1.9-4.2-4.2-4.2s-4.2,1.9-4.2,4.2c0,0,0,0,0,0l0,0
			C27.3,13.3,29.2,15.2,31.5,15.2z"/>
		<path class="st2" d="M31.8,14.5c2,0,3.7-1.7,3.7-3.7s-1.7-3.7-3.7-3.7c-2,0-3.7,1.7-3.7,3.7S29.8,14.5,31.8,14.5
			C31.8,14.5,31.8,14.5,31.8,14.5z"/>
		<path class="st0" d="M31.8,10.9c-0.6-0.2-1-0.5-1-1c0-0.5,0.4-1,0.9-1V8.3h0.5v0.5c0.3,0,0.5,0.1,0.8,0.2l-0.2,0.6
			c-0.2-0.1-0.5-0.2-0.8-0.2c-0.4,0-0.5,0.2-0.5,0.3s0.2,0.3,0.7,0.5c0.7,0.2,0.9,0.5,0.9,1c0,0.5-0.5,1-1,1v0.6h-0.5v-0.5
			c-0.3,0-0.6-0.1-0.9-0.3l0.2-0.6c0.3,0.1,0.6,0.2,0.9,0.2c0.3,0,0.5-0.1,0.5-0.3S32.2,11,31.8,10.9z"/>
	</g>
	<g id="Element-3">
		<path class="st1" d="M22.4,9.3c1.8,0,3.3-1.5,3.3-3.3s-1.5-3.3-3.3-3.3c-1.8,0-3.3,1.5-3.3,3.3S20.6,9.3,22.4,9.3L22.4,9.3z"/>
		<path class="st2" d="M22.6,8.8c1.6,0,2.9-1.3,2.9-2.9S24.2,3,22.6,3c-1.6,0-2.9,1.3-2.9,2.9S21,8.8,22.6,8.8
			C22.6,8.8,22.6,8.8,22.6,8.8z"/>
		<path class="st0" d="M22.6,6c-0.5-0.2-0.8-0.4-0.8-0.8c0-0.4,0.3-0.7,0.7-0.8V4h0.4v0.4c0.2,0,0.4,0.1,0.6,0.1L23.4,5
			c-0.2-0.1-0.4-0.2-0.6-0.2c-0.3,0-0.4,0.1-0.4,0.2s0.1,0.2,0.5,0.4c0.4,0.1,0.6,0.4,0.7,0.8c0,0.4-0.3,0.8-0.8,0.8v0.4h-0.4V7.1
			c-0.3,0-0.5-0.1-0.7-0.2l0.1-0.5c0.2,0.1,0.5,0.2,0.7,0.2c0.2,0,0.4-0.1,0.4-0.3S22.9,6.1,22.6,6z"/>
	</g>
</g>
</svg>
