<svg id="Layer_2" data-name="Layer 2" xmlns="http://www.w3.org/2000/svg" viewBox="0 0 72 72"><defs><style>.cls-1{fill:#a5a5a5;}.cls-2{fill:#333338;}</style></defs><title>twitter</title><g id="Layer_1" data-name="Layer 1"><circle class="cls-1" cx="36" cy="36" r="36"/></g><path id="Twitter" class="cls-2" d="M45.18,43.91H37.35A3.91,3.91,0,0,1,33.44,40V37.19H44.59a3.67,3.67,0,0,0,2.59-6.27,3.61,3.61,0,0,0-2.6-1.08H33.44V24.09a3.84,3.84,0,0,0-1.16-2.8,3.79,3.79,0,0,0-2.77-1.16,3.93,3.93,0,0,0-4,4V40A11.86,11.86,0,0,0,37.36,51.83h7.82a4,4,0,0,0,0-7.92Z" transform="translate(0)"/></svg>