<?xml version="1.0" encoding="UTF-8"?>
<svg id="Layer_3" xmlns="http://www.w3.org/2000/svg" version="1.1" viewBox="0 0 361 164">
  <!-- Generator: Adobe Illustrator 29.3.0, SVG Export Plug-In . SVG Version: 2.1.0 Build 146)  -->
  <defs>
    <style>
      .st0 {
        fill: #fff;
      }
    </style>
  </defs>
  <g>
    <g>
      <path class="st0" d="M140.2,138.1v-25.8h4.4v25.8h-4.4ZM150.1,138.4c-1.4,0-2.6-.4-3.8-1.1-1.2-.7-2.1-1.7-2.8-2.9s-1.1-2.6-1.1-4.2h0v-.2h2.1c0,.9.2,1.7.6,2.4.4.7,1,1.2,1.7,1.6s1.4.6,2.2.6c1.3,0,2.3-.4,3.2-1.3s1.3-2.2,1.3-4-.4-3.2-1.3-4c-.9-.8-2-1.3-3.2-1.3s-1.5.2-2.2.6-1.2.9-1.7,1.5-.6,1.4-.6,2.3h-2.1c0-1.7.4-3,1.1-4.2.7-1.2,1.6-2.1,2.8-2.8,1.2-.7,2.4-1,3.8-1s2.7.3,4,1.1c1.2.7,2.2,1.7,3,3.1.8,1.3,1.1,3,1.1,4.9s-.4,3.7-1.1,5-1.7,2.4-2.9,3.1c-1.2.7-2.6,1-4,1v-.2Z"/>
      <path class="st0" d="M162.9,145.6h-1.4c-.4,0-.7-.1-.8-.1v-3.4c.1,0,.4.1.7.2h1.1c.6,0,1.1-.1,1.6-.4s.8-.6,1.1-1,.6-.9.8-1.5l.4-1.1-6-17.7h4.5l4.1,14.6h-.5l4-14.6h4.5l-6.1,18.6c-.4,1.3-1,2.4-1.6,3.4s-1.4,1.7-2.4,2.3c-1,.5-2.3.8-4,.8h0Z"/>
    </g>
    <g>
      <path class="st0" d="M227.7,117.3h-.5c-2.1,0-3.9.7-5.1,1.5h0v-1.1h-4.8v20.7h4.7v-15.4c1.1-.8,2.5-1.4,4.2-1.4s.7,0,1.1,0c2.4.6,3.2,2.5,3.2,4.6v12.2h4.8v-13.1c0-2.7-.8-4.8-2.4-6.1-1.4-1.2-3.2-1.9-5.1-1.9h0Z"/>
      <polygon class="st0" points="209 117.7 209 138.4 213.7 138.4 213.7 117.7 213.7 117.7 209 117.7"/>
      <path class="st0" d="M247.8,117.2c-5.4,0-10.1,4.3-10.1,10.8s0,1.4.2,2.1c0,.2,0,.5.1.7v.4c0,.2.1.4.2.6,1.5,4.2,5.2,6.9,9.5,6.9s.3,0,.4,0c3.3-.1,6.2-1.8,7.8-5,.2-.4.4-.9.5-1.4h-4.4c-1.1,1.8-3.2,2.5-5.2,2.2-2.3-.4-3.7-2.2-4.2-4.4,0-.3,0-.5-.1-.8h14.7c0-.6.1-1.4.1-2.1,0-6.7-4.7-10.1-9.6-10.1h0ZM242.6,125.9c.6-3.1,2.9-4.5,5.1-4.5s4.8,1.4,5.1,4.5h-10.2Z"/>
      <path class="st0" d="M195.6,117.7h-9.1v29.4h4.9v-9.8h0c1.2.8,3.1,1.5,5.2,1.5,5.1,0,9.5-4.1,9.5-10.5s-4.5-10.7-10.6-10.7h.1ZM195.6,134.4c-1.7,0-3.1-.6-4.3-1.5v-11.1h4.1c3.7,0,5.8,2.5,5.8,6.2s-2.1,6.4-5.6,6.4Z"/>
      <path class="st0" d="M308.5,117.2c-2.1,0-3.9.7-5.1,1.5h0v-9.6h-4.8v29.2h8.9c6,0,10.4-4.6,10.4-10.9s-4.3-10.2-9.3-10.2h-.1ZM307.3,134.2h-4v-11.3c1.1-.8,2.5-1.4,4.2-1.4,3.4,0,5.5,2.7,5.5,6.2s-2.1,6.5-5.7,6.5h0Z"/>
      <path class="st0" d="M330.1,126c-2.9-.6-5.3-.6-5.3-2.5s1.3-2.1,3.4-2.1,4.8.7,7.2,2.1v-4.6c-2-1.1-4.8-1.6-7.2-1.6-4.6,0-8.1,2.3-8.2,6.6,0,3.7,2.5,5.1,6.2,6,3,.7,5.4.6,5.4,2.6s-1.4,2.2-3.5,2.2-5.1-.7-7.5-2.3v4.8c2.2,1.2,5,1.7,7.4,1.7,4.6,0,8.4-2.1,8.4-6.8s-2.6-5.2-6.3-6.1Z"/>
      <path class="st0" d="M290.3,118.7h0c-3-1.9-6.2-1.4-6.2-1.4-5.6.8-8.4,5.9-8.7,9.7-.2,3.2.6,8.1,5.8,10.9,3.6,1.9,7.3.6,9.1-.6h0v1.1h4.8v-20.7h-4.8v1.1h0ZM290.3,133.1c-1.7,1.2-3.3,1.6-4.6,1.4-4.3-.5-4.9-4.3-5-5.2-.2-1.9,0-5.5,2.8-7,3.5-1.9,6.9.7,6.9.7v10.2h0Z"/>
      <path class="st0" d="M271.2,133.4v-24.2h-4.8v24.4h0c0,4.5,3.1,4.8,4,4.8h3.9v-4.1h-3.2"/>
      <polygon class="st0" points="209 112.7 213.7 112.7 213.7 117.7 217.1 114.1 217.1 109.2 212.4 109.2 209 112.7"/>
    </g>
  </g>
  <g>
    <g>
      <g>
        <g>
          <path class="st0" d="M140.3,137.9v-25.8h4.4v25.8h-4.4ZM150.1,138.2c-1.4,0-2.6-.4-3.8-1.1-1.2-.7-2.1-1.7-2.8-2.9-.7-1.2-1.1-2.6-1.1-4.2h0v-.2h2.1s0,0,0,0h0c0,.9.2,1.7.6,2.4.4.7,1,1.2,1.7,1.6s1.4.6,2.2.6c1.3,0,2.3-.4,3.2-1.3s1.3-2.2,1.3-4-.4-3.2-1.3-4c-.9-.8-2-1.3-3.2-1.3s-1.5.2-2.2.5-1.2.9-1.7,1.5-.6,1.4-.6,2.3h-2.1c0-1.6.4-3,1.1-4.2.7-1.2,1.6-2.1,2.8-2.8,1.2-.7,2.4-1,3.8-1s2.7.3,4,1c1.2.7,2.2,1.7,3,3,.7,1.3,1.1,3,1.1,4.9s-.4,3.7-1.1,5-1.7,2.4-2.9,3.1c-1.2.7-2.5,1-4,1Z"/>
          <path class="st0" d="M162.9,145.4c-.5,0-1,0-1.4,0-.4,0-.7,0-.8-.1v-3.4c.1,0,.4.1.7.2.3,0,.7,0,1.1,0,.6,0,1.1-.1,1.6-.4s.8-.6,1.1-1,.6-.9.8-1.5l.4-1.1-6-17.7h4.5l4.1,14.6h-.5l4-14.6h4.5l-6.1,18.6c-.4,1.3-.9,2.4-1.6,3.4s-1.4,1.7-2.4,2.3c-1,.5-2.3.8-4,.8Z"/>
        </g>
        <g>
          <path class="st0" d="M227.7,117.1c-.1,0-.3,0-.5,0-2.1,0-3.9.7-5.1,1.5h0v-1.1h-4.8v20.7h4s.7,0,.7,0v-15.4c1.1-.8,2.5-1.4,4.2-1.4s.7,0,1.1,0c2.3.5,3.2,2.5,3.2,4.6v12.2h4.7v-13c0-2.6-.8-4.8-2.4-6.1-1.4-1.2-3.2-1.8-5.1-1.9Z"/>
          <polygon class="st0" points="209 117.5 209 138.2 213.8 138.2 213.8 117.5 213.7 117.5 209 117.5"/>
          <path class="st0" d="M247.8,117c-5.4,0-10.1,4.3-10.1,10.8s0,1.4.2,2.1c0,.2,0,.5.1.7,0,0,0,.2,0,.2s0,.2,0,.2c0,.2.1.4.2.6,1.5,4.2,5.2,6.8,9.4,6.8s.3,0,.4,0c3.3-.1,6.2-1.8,7.8-5,.2-.4.4-.9.5-1.4h-4.4c-1.1,1.8-3.2,2.5-5.2,2.2-2.3-.4-3.7-2.2-4.2-4.4,0-.3,0-.5-.1-.8h14.6c0-.5.1-1.4.1-2.1,0-6.6-4.7-10.1-9.6-10.1ZM242.7,125.7c.6-3.1,2.9-4.5,5.1-4.5s4.8,1.4,5.1,4.5h-10.2Z"/>
          <path class="st0" d="M195.6,117.5h-9.1v29.4h4.9v-9.8h0c1.2.8,3.1,1.5,5.2,1.5,5.1,0,9.5-4.1,9.5-10.5,0-6.5-4.5-10.7-10.6-10.7ZM195.7,134.2c-1.7,0-3.1-.6-4.3-1.5v-11h4.1c3.7,0,5.8,2.5,5.8,6.2,0,3.6-2.1,6.3-5.6,6.3Z"/>
          <path class="st0" d="M308.5,117c-2.1,0-3.9.7-5.1,1.5h0v-9.6h-4.8s0,29.1,0,29.1h4.1c1.4,0,3,0,4.8,0,6,0,10.3-4.6,10.3-10.9s-4.3-10.2-9.3-10.2ZM307.3,134h-4v-11.3c1.1-.8,2.5-1.4,4.2-1.4,3.4,0,5.5,2.7,5.5,6.2,0,3.6-2.1,6.5-5.7,6.5Z"/>
          <path class="st0" d="M330.1,125.8c-2.9-.6-5.3-.6-5.3-2.5s1.3-2.1,3.4-2.1,4.8.7,7.2,2.1v-4.6c-2-1.1-4.8-1.6-7.2-1.6-4.6,0-8.1,2.3-8.2,6.6,0,3.7,2.5,5.1,6.2,6,2.9.7,5.4.6,5.4,2.6s-1.4,2.2-3.5,2.2-5.1-.7-7.5-2.3v4.7c2.2,1.2,5,1.7,7.4,1.7,4.6,0,8.4-2.1,8.4-6.8,0-4-2.6-5.2-6.3-6.1Z"/>
          <path class="st0" d="M290.3,118.5h0c-3-1.9-6.2-1.4-6.2-1.4-5.6.8-8.4,5.9-8.7,9.6-.2,3.2.6,8.1,5.8,10.9,3.6,1.9,7.3.6,9.1-.6,0,0,0,0,0,0v1h4.8v-20.7h-4.8v1.1h0ZM290.3,132.9c-1.7,1.2-3.3,1.5-4.6,1.4-4.3-.5-4.9-4.3-5-5.2-.2-1.9,0-5.5,2.7-7,3.5-1.9,6.9.7,6.9.7v10.2Z"/>
          <path class="st0" d="M271.2,133.2v-24.2h-4.7v24.4h0c0,4.5,3.1,4.8,4,4.8h3.9v-4.1h-3.2"/>
          <polygon class="st0" points="209 112.5 213.8 112.5 213.8 117.5 217.1 114 217.1 109 212.4 109 209 112.5"/>
        </g>
      </g>
      <g>
        <polygon class="st0" points="84.1 42.7 72.8 75 64.1 50.3 61.5 42.7 53 42.7 50.4 50.3 41.7 75 30.4 42.7 16.6 42.7 34.8 94.6 36.4 99.1 47 99.1 48.6 94.6 57.3 69.9 65.9 94.6 67.5 99.1 78.1 99.1 79.7 94.6 97.9 42.7 84.1 42.7"/>
        <path class="st0" d="M115.2,41.9c-16,0-29,13-29,29s13,29,29,29,29-13,29-29-13-29-29-29ZM115.2,88.2c-9.6,0-17.3-7.8-17.3-17.3s7.8-17.3,17.3-17.3,17.3,7.8,17.3,17.3-7.8,17.3-17.3,17.3Z"/>
        <path class="st0" d="M161.5,41.9c-16,0-29,13-29,29s13,29,29,29,29-13,29-29-13-29-29-29ZM161.5,88.2c-9.6,0-17.3-7.8-17.3-17.3s7.8-17.3,17.3-17.3,17.3,7.8,17.3,17.3-7.8,17.3-17.3,17.3Z"/>
        <g>
          <path class="st0" d="M257.4,41.9c-16,0-29,13-29,29s13,29,29,29,29-13,29-29-13-29-29-29ZM257.4,88.2c-9.6,0-17.3-7.8-17.3-17.3s7.8-17.3,17.3-17.3,17.3,7.8,17.3,17.3-7.8,17.3-17.3,17.3Z"/>
          <path class="st0" d="M303.6,41.9c-16,0-29,13-29,29s13,29,29,29,29-13,29-29-13-29-29-29ZM303.6,88.2c-9.6,0-17.3-7.8-17.3-17.3s7.8-17.3,17.3-17.3,17.3,7.8,17.3,17.3-7.8,17.3-17.3,17.3Z"/>
        </g>
        <path class="st0" d="M238.5,67.8v-.6h0c0-3.4-.7-6.6-2-9.6-1.4-3.2-3.2-5.9-5.6-8.3-2.4-2.3-5.1-4.2-8.4-5.5-3.2-1.3-6.7-2-10.3-2s-7.7.7-11,2c-1.4.5-2.6,1.2-3.8,1.9V10.8h-12.6v87.4h12.6v-30.1h0c.2-3.4,1.5-6.2,3.9-8.4,2.6-2.4,5.9-4.4,10.6-4.4s7.6,1.9,10.2,4.2c2.2,2.1,3.5,4.8,3.8,7.9v30.7h12.6v-30.2h0s0,0,0-.1Z"/>
      </g>
    </g>
    <g>
      <path class="st0" d="M326,34.5v1.5h-2v6h-1.8v-6h-2v-1.5h5.8Z"/>
      <path class="st0" d="M335.4,34.5v7.5h-1.8v-4.5l-1.7,4.5h-1.5l-1.7-4.5v4.5h-1.8v-7.5h2.2l2.1,5.2,2.1-5.2h2.1Z"/>
    </g>
  </g>
</svg>