<svg xmlns="http://www.w3.org/2000/svg" viewBox="0 0 72 72"><defs><style>.cls-1{fill:#a5a5a5;}.cls-2{fill:#333338;}</style></defs><title>word</title><g id="Layer_1" data-name="Layer 1"><circle class="cls-1" cx="36" cy="36" r="36"/></g><g id="Layer_5" data-name="Layer 5"><path class="cls-2" d="M50.56,26c-.74-1.92-1.6-2.61-4.94-2.61A3.5,3.5,0,0,0,42,27a6.71,6.71,0,0,0,1.17,3.17c.23.41.47.83.68,1.27l.22.47A6.62,6.62,0,0,1,45,35.36a9.06,9.06,0,0,1-.4,2.36l0,.05-2,5.91L37.46,29.15l.45-.07a1.79,1.79,0,0,0-.06-3.58h-.09a20.91,20.91,0,0,1-7,0h-.1a1.79,1.79,0,0,0-.05,3.58l.62.1,2.38,6.19-3,8.79L25.29,29.09h.09a1.79,1.79,0,0,0-.07-3.58h-.12a14.54,14.54,0,0,1-5.73,0h-.12a1.79,1.79,0,0,0-.09,3.57l7.31,20.06a3.54,3.54,0,0,0,2.52,2.27,3.44,3.44,0,0,0,.84.1,3.61,3.61,0,0,0,3.4-2.44L36.69,39,40.3,49.09a2.8,2.8,0,0,0,1.57,1.64,2.26,2.26,0,0,0,1.83-.12,2.85,2.85,0,0,0,1.63-1.73l4.44-13.24A17,17,0,0,0,51,29.38v-1A6.62,6.62,0,0,0,50.56,26Z"/></g></svg>